<svg width="25" height="25" viewBox="0 0 22 21" fill="none" xmlns="http://www.w3.org/2000/svg">
<path d="M10.7639 0.276367C11.2034 0.276367 11.643 0.276367 12.0825 0.276367C12.4407 0.322894 12.7988 0.353913 13.1407 0.415949C15.5175 0.803676 17.5525 1.82728 19.1805 3.53328C21.4108 5.85964 22.3225 8.62026 21.8992 11.7376C21.5736 14.126 20.4666 16.1422 18.5944 17.7706C16.1524 19.8954 13.2547 20.7484 9.98244 20.3606C7.86608 20.1125 6.01019 19.275 4.41478 17.9412C2.57518 16.3903 1.41932 14.4517 0.996049 12.1408C0.93093 11.7686 0.882091 11.3964 0.833252 11.0087C0.833252 10.5899 0.833252 10.1712 0.833252 9.75242C0.865811 9.51978 0.88209 9.27164 0.930929 9.039C1.24024 6.9918 2.10307 5.17724 3.55196 3.64184C5.17993 1.92033 7.21489 0.850203 9.60801 0.446967C9.99872 0.369422 10.3894 0.338404 10.7639 0.276367ZM14.2966 14.6688C14.5408 15.0565 14.8012 15.4132 15.0291 15.7855C15.0943 15.894 15.1757 15.9095 15.3059 15.863C16.592 15.4598 17.7804 14.9014 18.8874 14.1415C18.9526 14.095 19.0177 13.9864 19.034 13.9089C19.1153 13.0248 19.1153 12.1408 19.0014 11.2568C18.7409 9.28715 17.9921 7.48809 16.8362 5.84413C16.7874 5.76658 16.706 5.70455 16.6246 5.67353C15.6966 5.27029 14.7361 4.99113 13.7268 4.82053C13.6617 4.80502 13.564 4.85155 13.5314 4.89808C13.4175 5.06868 13.3361 5.25479 13.2547 5.44089C13.2058 5.53395 13.1733 5.56497 13.0593 5.54946C11.9848 5.40988 10.9104 5.40988 9.81964 5.53395C9.7708 5.53395 9.67312 5.48742 9.64056 5.44089C9.52661 5.27029 9.44521 5.08418 9.34753 4.89808C9.29869 4.80502 9.24985 4.774 9.1359 4.78951C8.12655 4.97562 7.16605 5.25478 6.22183 5.65802C6.15671 5.68904 6.07531 5.75108 6.04275 5.81311C4.33339 8.26355 3.56824 10.9466 3.82871 13.8933C3.82871 13.9709 3.87755 14.0639 3.94267 14.1105C5.04969 14.8859 6.27067 15.4753 7.58932 15.863C7.63816 15.8785 7.71956 15.863 7.75212 15.8475C8.02888 15.4598 8.28935 15.0565 8.56611 14.6533C8.30563 14.5447 8.094 14.4517 7.88236 14.3586C7.67072 14.2656 7.47537 14.157 7.24745 14.0484C7.42653 13.9089 7.50793 13.7693 7.73584 13.8778C10.1778 14.8859 12.6198 14.8859 15.078 13.9089C15.3385 13.8003 15.371 13.8158 15.5989 14.0795C15.1594 14.2656 14.7524 14.4672 14.2966 14.6688Z" fill="white"/>
<path d="M13.971 9.45774C14.8013 9.45774 15.4688 10.2332 15.3222 11.0707C15.2734 11.3498 15.1757 11.6445 14.9966 11.8616C14.492 12.544 13.4989 12.5596 12.9454 11.8927C12.3756 11.2103 12.5059 10.1556 13.2222 9.67487C13.4664 9.53528 13.6943 9.44223 13.971 9.45774Z" fill="white"/>
<path d="M10.2754 10.8692C10.2592 11.3189 10.1289 11.6756 9.85216 11.9703C9.29865 12.5286 8.43583 12.5131 7.91488 11.9238C7.45905 11.412 7.41021 10.6365 7.78464 10.0627C8.09395 9.61293 8.59862 9.3803 9.11957 9.45784C9.6568 9.5509 10.1289 9.98515 10.2429 10.5435C10.2429 10.6676 10.2592 10.7916 10.2754 10.8692Z" fill="white"/>
</svg>
