<svg width="8" height="7" viewBox="0 0 8 7" fill="none" xmlns="http://www.w3.org/2000/svg">
<path d="M8 0.708838C7.95524 0.999834 7.82097 1.2386 7.68031 1.47737C6.70844 3.12635 5.74296 4.78279 4.77109 6.43177C4.6496 6.64069 4.50894 6.81977 4.30433 6.92423C3.99743 7.08092 3.64576 6.99138 3.3964 6.68546C3.33246 6.61084 3.27492 6.52131 3.22377 6.43923C2.23272 4.74548 1.23527 3.04427 0.237826 1.34306C0.12913 1.15652 0.0332212 0.969988 0.00764557 0.738683C-0.0371113 0.380534 0.116342 0.111921 0.423248 0.037307C0.531944 0.00746116 0.64064 -2.86047e-07 0.749336 -2.81822e-07C2.91047 -1.97822e-07 5.078 -1.13574e-07 7.23913 -2.95739e-08C7.36061 -2.4852e-08 7.4821 0.0149229 7.59079 0.0522301C7.80179 0.111922 7.94246 0.276074 7.99361 0.529763C8 0.589455 8 0.649146 8 0.708838Z" fill="#FFBC00"/>
</svg>
