<svg width="25" height="25" viewBox="0 0 20 22" fill="none" xmlns="http://www.w3.org/2000/svg">
<path d="M9.37804 0.843506C9.79313 0.843506 10.2082 0.843506 10.6233 0.843506C10.9615 0.890593 11.2998 0.921985 11.6226 0.984768C14.0056 1.40855 16.0195 2.53865 17.5877 4.43784C19.5709 6.82361 20.3396 9.60176 19.863 12.6938C19.4479 15.3621 18.1411 17.5438 16.0349 19.1762C13.8518 20.8713 11.3766 21.5306 8.65547 21.1696C6.65687 20.9027 4.90425 20.0709 3.39762 18.7053C1.66037 17.1357 0.584205 15.1738 0.153738 12.8351C0.092243 12.4584 0.0461215 12.0817 0 11.6893C0 11.2655 0 10.8417 0 10.4179C0.0307477 10.1668 0.0614952 9.91568 0.0922429 9.66454C0.399719 7.43574 1.32215 5.52085 2.87491 3.91988C4.38154 2.366 6.18028 1.39286 8.28649 1.00046C8.65547 0.937681 9.02444 0.906289 9.37804 0.843506ZM8.45561 11.4068C8.45561 13.3844 8.45561 15.3464 8.45561 17.3084C9.27042 17.3084 10.0545 17.3084 10.8693 17.3084C10.8693 15.3307 10.8693 13.3688 10.8693 11.3911C11.4228 11.3911 11.9608 11.3911 12.4989 11.3911C12.5758 10.6848 12.6373 10.0099 12.7142 9.30354C12.0838 9.30354 11.4996 9.30354 10.8847 9.30354C10.8847 8.91115 10.8847 8.55014 10.8847 8.17344C10.8847 7.67118 11.0384 7.51422 11.5457 7.51422C11.9147 7.51422 12.2991 7.51422 12.6834 7.51422C12.6834 7.45144 12.6988 7.40435 12.6988 7.35726C12.6988 6.74513 12.6988 6.11729 12.6988 5.50516C12.6527 5.48946 12.6373 5.47377 12.6065 5.47377C11.9762 5.47377 11.3613 5.44237 10.7309 5.47377C9.47028 5.55225 8.73234 6.19577 8.53248 7.40435C8.44023 7.93801 8.48635 8.50306 8.47098 9.05241C8.47098 9.13089 8.47098 9.20937 8.47098 9.30354C8.07126 9.30354 7.70229 9.30354 7.34869 9.30354C7.34869 10.0099 7.34869 10.6848 7.34869 11.3754C7.70229 11.4068 8.05589 11.4068 8.45561 11.4068Z" fill="white"/>
</svg>
