<svg width="9" height="7" viewBox="0 0 9 7" fill="none" xmlns="http://www.w3.org/2000/svg">
<path d="M8.40915 6.39387C8.13559 6.48718 7.86235 6.48956 7.58592 6.48707C5.67663 6.46961 3.7641 6.46027 1.85481 6.44281C1.61373 6.44185 1.38882 6.41324 1.19635 6.30336C0.90765 6.13854 0.809104 5.83193 0.948485 5.50842C0.980921 5.42715 1.02944 5.3442 1.07471 5.26939C2.04118 3.77453 3.0109 2.27154 3.98061 0.768546C4.08728 0.604257 4.20034 0.449691 4.38721 0.329021C4.67397 0.138255 4.98256 0.137403 5.20042 0.338143C5.28053 0.407742 5.34132 0.487136 5.39566 0.569796C6.47623 2.21326 7.55999 3.86159 8.64056 5.50506C8.7013 5.59745 8.74916 5.69636 8.77131 5.79535C8.82528 5.98192 8.75392 6.16073 8.56052 6.31065C8.51219 6.34163 8.46067 6.36775 8.40915 6.39387Z" fill="#FFBC00"/>
</svg>
